# xmcd
#
# Track frame offsets:
#	150
#	10470
#	19302
#	32760
#	35880
#	46021
#	49051
#	62586
#	70469
#	72558
#	81091
#	82954
#	103570
#	106229
#
# Disc length: 1577 seconds
#
# Revision: 0
# Processed by: cddbd v1.5.2PL0 Copyright (c) Steve Scherf et al.
# Submitted via: EasyCDDAExtractor 16.0.8.2
#
DISCID=ba06270e
DTITLE=Συλλογικός δίσκος - Ελλάς, η χώρα των εμβατηρίων-bonus LP
DYEAR=1990
DGENRE=Εμβατήρια
TTITLE0=γυμναστής - Ολίγη πρωϊνή γυμναστική
TTITLE1=Παπαδόπουλος Γεώργιος - Διατί έγινε η επανάστασις [συν. Μάϊος 1967]
TTITLE2=Κατράκος Βασίλης - Να ζήσει ο εθνικός στρατός [συρτός ύμνος επταετίας]
TTITLE3=Παπανδρέου Γεώργιος - Η Κίρκη και το δέλεαρ της εξουσίας [απόσπ. ομιλί
TTITLE3=ας 1965]
TTITLE4=Παλαιολόγος Π. - Παπανδρέου και λαός [εποχή Ανένδοτου, 1962]
TTITLE5=Παπαδόπουλος Γεώργιος - Ο ασθενής εν τω γύψω
TTITLE6=Κουλουριώτης Ιωάννης - Ένα πρωϊνό τ' Απρίλη του 1967 [καλαματ., ύμν. ε
TTITLE6=πταετίας]
TTITLE7=Αντάρτικη κομπανία - Ο ύμνος του ΕΑΜ [1941-44]
TTITLE8=Παπανδρέου Γεώργιος - Όχι στο σύνταγμα της δικτατορίας [τελ. μήνυμα το
TTITLE8=υ Γ.Π.]
TTITLE9=Δήμας Φώτης - Ναι στο σύνταγμα του 1968 [προπαγανδ. κατασκεύασμα]
TTITLE10=Παπαδόπουλος Γεώργιος - Η Ελλάς κηρύσσεται προεδρική δημοκρατία
TTITLE11=Κιινέσας Γ.-Σπυρόπουλος Π. - Οι σωτήρες του έθνους
TTITLE12=Παπανδρέου Ανδρέας - Ορκωμοσία Ανδρέα Παπανδρέου
TTITLE13=Θωμόπουλος Γιάννης-χορωδία - Ο ύμνος του ΠΑΣΟΚ [1974]
EXTD=
EXTT0=
EXTT1=
EXTT2=
EXTT3=
EXTT4=
EXTT5=
EXTT6=
EXTT7=
EXTT8=
EXTT9=
EXTT10=
EXTT11=
EXTT12=
EXTT13=
PLAYORDER=
